<?xml version="1.0" standalone="no"?>
<!DOCTYPE svg PUBLIC "-//W3C//DTD SVG 20010904//EN"
 "http://www.w3.org/TR/2001/REC-SVG-20010904/DTD/svg10.dtd">
<svg version="1.0" xmlns="http://www.w3.org/2000/svg"
 width="512.000000pt" height="512.000000pt" viewBox="0 0 512.000000 512.000000"
 preserveAspectRatio="xMidYMid meet">
<metadata>
Created by potrace 1.14, written by Peter Selinger 2001-2017
</metadata>
<g transform="translate(0.000000,512.000000) scale(0.100000,-0.100000)"
fill="#000000" stroke="none">
<path d="M2370 5054 c-239 -27 -374 -54 -552 -110 -290 -92 -577 -251 -820
-453 -91 -77 -318 -307 -318 -323 0 -5 11 -8 25 -8 36 0 127 -37 174 -70 50
-36 104 -109 127 -170 9 -25 20 -49 24 -53 4 -5 34 -3 66 4 151 31 302 -65
348 -220 12 -43 16 -47 60 -59 62 -18 114 -70 122 -122 5 -31 14 -44 40 -59
73 -43 68 43 70 -1093 l1 -1019 59 -47 c116 -94 206 -234 238 -372 22 -92 20
-240 -3 -332 -19 -73 -57 -158 -101 -225 l-21 -31 88 -21 c222 -52 465 -72
705 -59 827 44 1581 520 1985 1253 173 312 267 641 298 1033 l5 73 -1079 -1
c-1045 -1 -1082 -1 -1123 18 -92 41 -146 132 -155 261 -4 60 -2 84 11 109 29
56 79 104 136 131 l56 27 -59 34 c-33 19 -88 61 -122 93 -381 348 -307 962
145 1215 189 106 436 121 640 39 99 -40 169 -87 251 -167 90 -88 155 -195 189
-307 l24 -79 86 35 c75 31 97 36 195 39 61 2 137 -1 169 -7 75 -14 207 -77
266 -128 l44 -38 -23 40 c-99 164 -248 351 -392 490 -369 356 -820 580 -1334
660 -95 15 -468 28 -545 19z m332 -3076 c78 -36 138 -101 179 -193 29 -65 37
-75 54 -69 41 13 142 16 181 5 96 -26 171 -104 204 -210 17 -53 19 -55 65 -66
30 -8 60 -25 84 -49 34 -34 36 -40 36 -99 -1 -77 -25 -129 -74 -159 l-36 -23
-675 1 c-662 1 -676 1 -715 22 -95 49 -149 142 -149 262 -1 63 4 84 27 133 46
92 119 137 247 149 21 3 29 14 50 70 32 85 77 149 135 191 79 56 118 67 230
64 84 -2 109 -6 157 -29z"/>
<path d="M196 3188 c-98 -444 -82 -873 50 -1290 89 -280 236 -554 422 -785
l66 -82 25 37 c43 66 109 138 161 178 l50 38 0 988 0 988 -379 0 -379 0 -16
-72z"/>
<path d="M1304 3175 c-4 -8 -4 -22 0 -30 5 -13 33 -15 193 -13 l188 3 0 25 0
25 -188 3 c-160 2 -188 0 -193 -13z"/>
<path d="M1310 2895 c-7 -8 -10 -22 -6 -30 5 -13 32 -15 193 -13 l188 3 0 25
0 25 -181 3 c-152 2 -183 0 -194 -13z"/>
<path d="M1309 2614 c-9 -11 -10 -20 -2 -32 9 -15 33 -17 187 -17 186 0 213 6
190 42 -15 23 -356 30 -375 7z"/>
<path d="M1106 2343 c-3 -3 -6 -253 -6 -554 l0 -548 -57 -39 c-289 -196 -347
-587 -127 -856 56 -69 148 -135 239 -171 83 -33 235 -45 326 -26 161 35 322
158 393 302 50 101 66 168 66 274 0 188 -98 364 -264 477 l-58 40 6 46 c3 24
6 66 6 93 0 41 3 48 21 51 31 4 46 32 30 52 -8 9 -22 16 -32 16 -17 0 -19 9
-19 109 l0 110 28 3 c19 2 28 9 30 26 3 18 -2 23 -27 28 l-31 7 0 108 0 108
28 3 c21 2 27 8 27 28 0 20 -6 26 -27 28 l-28 3 0 108 0 109 30 6 c21 4 30 11
30 25 0 11 -4 23 -10 26 -13 8 -566 16 -574 8z"/>
</g>
</svg>
