<?xml version="1.0" standalone="no"?>
<!DOCTYPE svg PUBLIC "-//W3C//DTD SVG 20010904//EN"
 "http://www.w3.org/TR/2001/REC-SVG-20010904/DTD/svg10.dtd">
<svg version="1.0" xmlns="http://www.w3.org/2000/svg"
 width="512.000000pt" height="512.000000pt" viewBox="0 0 512.000000 512.000000"
 preserveAspectRatio="xMidYMid meet">
<metadata>
Created by potrace 1.14, written by Peter Selinger 2001-2017
</metadata>
<g transform="translate(0.000000,512.000000) scale(0.100000,-0.100000)"
fill="#000000" stroke="none">
<path d="M2449 3523 c-16 -42 -4 -93 31 -128 l30 -30 191 -5 190 -5 166 -305
c91 -168 172 -319 180 -336 16 -32 16 -32 -41 -104 -68 -88 -110 -173 -138
-282 -18 -72 -20 -103 -16 -272 5 -169 8 -200 30 -268 39 -118 92 -204 182
-294 90 -90 175 -143 294 -182 67 -22 94 -26 212 -26 118 0 145 4 212 26 120
40 204 92 293 182 92 93 144 177 182 291 23 72 26 99 31 271 4 170 2 200 -16
273 -12 45 -34 109 -50 141 l-28 60 24 0 c36 0 80 30 98 68 22 47 12 97 -27
138 -31 32 -31 32 -10 43 48 26 66 112 33 164 -41 66 -255 192 -407 240 -120
37 -228 50 -378 45 -126 -5 -331 -39 -351 -58 -8 -8 38 -98 225 -440 34 -63
78 -145 98 -182 l36 -68 45 0 c164 0 339 -111 415 -262 48 -97 52 -126 26
-205 -66 -200 -237 -325 -446 -326 -130 0 -232 38 -329 123 -80 71 -155 231
-142 304 10 53 71 167 108 203 l33 32 109 -202 c129 -240 147 -262 216 -262
40 0 54 5 79 29 36 35 47 81 31 130 l-11 35 -32 -19 c-40 -25 -93 -25 -132 -2
-29 18 -71 90 -273 472 -28 52 -103 192 -169 310 -65 119 -174 320 -243 448
l-125 232 -180 0 c-137 1 -186 4 -205 15 -35 20 -39 19 -51 -12z"/>
<path d="M945 3184 c-141 -31 -303 -111 -330 -164 -30 -58 -5 -149 44 -165 18
-5 17 -9 -17 -40 -33 -30 -37 -38 -37 -85 0 -47 3 -55 37 -86 45 -40 94 -45
146 -14 17 11 32 17 32 15 0 -3 -18 -28 -40 -56 -52 -67 -96 -160 -122 -261
-18 -72 -20 -103 -16 -272 5 -169 8 -200 30 -268 39 -118 92 -204 182 -294 90
-90 175 -143 294 -182 67 -22 94 -26 212 -26 118 0 145 4 212 26 42 14 107 42
145 63 85 48 214 176 266 265 41 70 87 203 87 250 l0 29 308 3 308 3 90 67
c127 94 139 109 139 168 0 81 -12 82 -112 8 -48 -36 -98 -70 -110 -77 -15 -8
-203 -11 -653 -11 -556 0 -635 2 -662 16 -40 21 -53 7 -53 -56 0 -43 5 -54 33
-82 l32 -33 192 -5 192 -5 -45 -54 c-173 -212 -483 -235 -693 -51 -80 71 -155
231 -142 304 21 110 134 254 244 310 180 91 395 65 537 -65 l42 -39 172 0
c144 0 171 2 171 15 0 8 -11 43 -24 79 l-24 64 76 -53 c154 -105 154 -105 343
-105 l165 0 55 41 c62 48 124 78 157 79 38 0 81 -28 100 -66 l18 -36 61 50
c91 76 108 127 78 230 -14 47 -14 54 1 83 22 43 15 130 -15 192 -68 141 -246
234 -543 283 -149 25 -1454 31 -1563 8z m1558 -259 c54 -9 131 -28 170 -41 73
-25 147 -67 147 -84 0 -5 -29 -23 -65 -41 -173 -85 -386 -26 -628 173 l-28 23
153 -6 c84 -4 197 -14 251 -24z"/>
</g>
</svg>
